leg39_ForwardTool_states
nRows=5
nColumns=41

# SIMM Motion File Header:
name leg39_ForwardTool_states
datacolumns 41
datarows 5
otherdata 1
range 0.22429694999999902000 0.22822910999999899000
endheader
time	pelvis_tilt	hip_angle_r	knee_angle_r	tib_tx_r	tib_ty_r	pat_angle_r	pat_tx_r	pat_ty_r	ankle_angle_r	subtalar_angle_r	mtp_angle_r	pelvis_tilt_u	hip_angle_r_u	knee_angle_r_u	tib_tx_r_u	tib_ty_r_u	pat_angle_r_u	pat_tx_r_u	pat_ty_r_u	ankle_angle_r_u	subtalar_angle_r_u	mtp_angle_r_u	bifemlh_r.activation	bifemlh_r.fiber_length	bifemsh_r.activation	bifemsh_r.fiber_length	glut_max2_r.activation	glut_max2_r.fiber_length	psoas_r.activation	psoas_r.fiber_length	rect_fem_r.activation	rect_fem_r.fiber_length	vas_int_r.activation	vas_int_r.fiber_length	med_gas_r.activation	med_gas_r.fiber_length	soleus_r.activation	soleus_r.fiber_length	tib_ant_r.activation	tib_ant_r.fiber_length
      0.22429694999999902000	     -0.00000000000005392211	     24.67799640881403500000	    -48.26325486148689200000	      0.00363626650280068650	     -0.47257663848353648000	     16.99553972557898600000	      0.04615080572903345500	     -0.02336773201540916900	      4.56951466582448160000	      0.00000000000001141446	     -0.00000000000000062345	     -0.00000000000031804069	     38.07065257172286000000	    300.01611055408131000000	     -0.03816484659305977000	      0.08083148538616404000	    -15.06037697280372900000	      0.08155114256120416000	     -0.01186246221428300700	     26.02104401113185600000	      0.00000000000012138909	     -0.00000000000010596541	      0.02304374432775124400	      0.10445105751200834000	      0.03844784169928267000	      0.17232611621032226000	      0.02000000000000000000	      0.11521497594329203000	      0.23392845885842306000	      0.08781646144529600700	      0.09039919759662010100	      0.13928021561620080000	      0.02423832825229319000	      0.12024986907166399000	      0.02072842829244036000	      0.08928114287154291500	      0.02000000000000000000	      0.09366604431234983000	      0.30680868583081278000	      0.08325291851448450600
      0.22495230999999902000	     -0.00000000000005413450	     24.70272840733123600000	    -48.06614275744102100000	      0.00361112313952615360	     -0.47252360150079870000	     16.98558443760036600000	      0.04620434256597644900	     -0.02337553353730034400	      4.58661710532591730000	      0.00000000000001149656	     -0.00000000000000069321	     -0.00000000000033311581	     37.40496329171179500000	    301.52183571698924000000	     -0.03856655873274351200	      0.08102372298338897400	    -15.32138204633339900000	      0.08182983305975091700	     -0.01194598721152756300	     26.17057583278968700000	      0.00000000000013022064	     -0.00000000000011081582	      0.02299428192331667500	      0.10460678640961750000	      0.03818055584652946900	      0.17244321625314443000	      0.02000000000000000000	      0.11523899166789225000	      0.23077211099139389000	      0.08780647152240296500	      0.08955048194987744200	      0.13910599758370124000	      0.02423445529611364900	      0.12009618055014532000	      0.02071659095956263800	      0.08936262184930768300	      0.02000000000000000000	      0.09367939236406008800	      0.30724094589594281000	      0.08323860302605375100
      0.22626302999999900000	     -0.00000000000005458832	     24.75087918170408900000	    -47.66896270269839400000	      0.00356004719369768270	     -0.47241715766984343000	     16.96515446025239600000	      0.04631195938098296000	     -0.02339130173132212100	      4.62110635004402410000	      0.00000000000001169612	     -0.00000000000000078761	     -0.00000000000035124228	     36.06554943147118300000	    304.52484984782222000000	     -0.03936884429845253400	      0.08139332248835770600	    -15.85484802520581700000	      0.08237840302727628100	     -0.01211474793998253300	     26.45131351292869900000	      0.00000000000017258047	     -0.00000000000007121669	      0.02289775542087457000	      0.10491884862520529000	      0.03765894415349803300	      0.17267924606070426000	      0.02000000000000000000	      0.11528587317995448000	      0.22461245855278375000	      0.08778786532669886900	      0.08789420272357483000	      0.13875593663365762000	      0.02422689717356792500	      0.11978601087897896000	      0.02069349025602848500	      0.08952673347257261700	      0.02000000000000000000	      0.09370635044802003200	      0.30802494492650362000	      0.08320986033398669600
      0.22757374999999899000	     -0.00000000000005505057	     24.79726755961807400000	    -47.26785423577015900000	      0.00350792101664988960	     -0.47231024261420385000	     16.94401511921874700000	      0.04642028739128256600	     -0.02340729264171688100	      4.65594390114598330000	      0.00000000000001190937	     -0.00000000000000085328	     -0.00000000000035915786	     34.71567655742504900000	    307.51655628000543000000	     -0.04016902448856689300	      0.08174282188142566200	    -16.40386411991398300000	      0.08291513490201524200	     -0.01228585692423003400	     26.70031401794344800000	      0.00000000000016302973	     -0.00000000000007648083	      0.02280434063800741700	      0.10523170281853277000	      0.03715414762805958900	      0.17291580006299898000	      0.02000000000000000000	      0.11533121465829560000	      0.21865137449263125000	      0.08777096930062416900	      0.08629131688001869000	      0.13840351664238751000	      0.02421958270180494000	      0.11947208491317425000	      0.02067113424860953000	      0.08969234656872619700	      0.02000000000000000000	      0.09373364873959359700	      0.30871263325427389000	      0.08318101414847353700
      0.22822910999999899000	     -0.00000000000005528996	     24.81979665324394800000	    -47.06583159827350500000	      0.00348146507784958700	     -0.47225661668766827000	     16.93317302296052800000	      0.04647471320033211300	     -0.02341537258554955000	      4.67347895978652960000	      0.00000000000001201514	     -0.00000000000000089935	     -0.00000000000036981164	     34.03726914569206500000	    309.00705132165035000000	     -0.04056795740715744100	      0.08190964338931992800	    -16.68424849280069100000	      0.08317873295890893000	     -0.01237227365481259800	     26.81069889320263400000	      0.00000000000016282013	     -0.00000000000008625659	      0.02275876866616183600	      0.10538842140928192000	      0.03690788496663754300	      0.17303700115627116000	      0.02000000000000000000	      0.11535330548143968000	      0.21574328707198462000	      0.08776312435847515000	      0.08550935639911601300	      0.13822636364108434000	      0.02421601437042293600	      0.11931370644247484000	      0.02066022797329200200	      0.08977570052104481800	      0.02000000000000000000	      0.09374742067901555000	      0.30902411704102190000	      0.08316656634256661100
